<svg id="Livello_1" data-name="Livello 1" xmlns="http://www.w3.org/2000/svg" viewBox="0 0 1725.83947 1407.60855"><path d="M2367.74,549.88c-.76-165.12-87.3999-249.93-254.21-250.26q-608.97-1.23-1217.94.05c-161.61.36-249.91,84.41-250.97,242.66q-3.105,461.93994,0,923.93c1.04,153.57,88.89,238.55,243.18,239.61,206.48,1.43,412.98.35,619.47.25,206.49-.11,412.99,1.23,619.47-.55,153.42993-1.32,240.13013-87.84,240.99-242.26Q2370.26489,1006.605,2367.74,549.88Zm-123.57007,888.64c-.52,116.22-26.44995,142.7-142.94995,143.09-398.95,1.35-797.90991.08-1196.86,1.32-96.3.3-138.37-40.44-137.29-139.61,3.23-293.92,2.32-587.92.31-881.86-.66-96.24,37.74-140.94,137.36-139.31,199.41992,3.27,398.93994.97,598.41.9,199.48-.06994,398.96-.77,598.43006.21,112.37988.55,142.51,30.27,142.88989,143.88Q2245.955,1002.82994,2244.16992,1438.52Z" transform="translate(-643.06 -298.99623)"/></svg>