<svg id="Livello_1" data-name="Livello 1" xmlns="http://www.w3.org/2000/svg" viewBox="0 0 2308.76782 1370.33508"><path d="M2608.31006,631.52c-1.89014-221.02-113.53-329.17-338.16992-329.47Q1462.975,300.955,655.79,302.28c-237.25.42-351.1,111.29-353.36,345.66q-3.33,343.995.58,688.05c2.51,219.47,117.67,333.72,336.13,335.03,269.06,1.62,538.12.39,807.18006.42,277.87988.04,555.77,1.09,833.63989-.29,215.39014-1.07,325.64014-109.94,327.74-325.1Q2611.19507,988.81,2608.31006,631.52ZM2457.99,1334.77c-1.79,135.22-48.56006,179.39-187.49,180.42-273,2.02-546.03.59-819.04.63-264.21.04-528.42,1-792.61993-.33-153.07-.77-199.01-45.09-200.27-195.17-1.88-224.56-2.18-449.16.27-673.7C460.36,507.17,511.41,457.9,652.98,457.62q805.81494-1.605,1611.6499.04c141.03.3,191.55,49,193.40015,190.21Q2462.53,991.28,2457.99,1334.77Z" transform="translate(-300.89038 -301.52481)"/></svg>