<svg id="Livello_1" data-name="Livello 1" xmlns="http://www.w3.org/2000/svg" viewBox="0 0 2643.423 1570.47966"><path d="M2774.55005,495.26C2771.73,266.69,2643.6499,141.08,2415.52,139.52c-318.18994-2.17-636.41-.54-954.62-.6-318.21008-.05-636.42-1.41-954.62.4-226.54,1.29-363.82,128.64-368.24,352.12q-8.54993,431.67.41,863.62c4.58,208.37,133.43,346.73,341.39,348.8q984.81,9.78,1969.76007-.39c202.77-2.25995,321.91992-140.1,324.63989-344.54Q2779.98511,927.155,2774.55005,495.26Zm-169.65991,826.56c.41992,137.78-69.90015,206.23-204.56006,206.44-626.36011,1-1252.7301,1.93-1879.09009-.61C371.71,1527.04,316.4,1464.85,315.25,1310.02q-2.865-386.4.32-772.83c1.5-163.48,56.08-218.55,217.58-219.59,308.12-1.97,616.25989-.57,924.39-.57,308.12988-.01,616.27-1.23,924.3999.49,163.43994.91,219.91016,55.08,221.65015,216.32C2606.42993,796.48,2604.08008,1059.16,2604.89014,1321.82Z" transform="translate(-133.7372 -138.38283)"/></svg>