<svg id="Livello_1" data-name="Livello 1" xmlns="http://www.w3.org/2000/svg" viewBox="0 0 1088.6385 1564.2178"><path d="M1998.17993,409.56C1995.73,250.07,1917.62,173.65,1757.49,172.19c-204.90991-1.87-409.87-2.55-614.75.26-147.2,2.01-228.57,80.06-229.64,224.27q-4.095,552.105-.5,1104.24994c.94,149.9,84.99005,231.09,234.35,232.58,197.31006,1.96,394.66,1.18,591.99.37,180.1001-.74,257.68006-76.04,259.45007-254.25,1.77991-178.34.39-356.7.41-535.06C1998.82007,766.26,2000.92993,587.87,1998.17993,409.56Zm-131.33984,32.27c-6.55,170.37-1.75,341.18-1.92017,511.8-.15991,170.62-3.53992,341.34,1.16016,511.83C1868.71,1560.97,1838.39,1604.05,1736.21,1600.94c-185.61987-5.67-371.62988-5.26-557.28-.09-96.79993,2.69-136.08-29.01-134.83-130.04q6.36017-517.47.1-1035.06c-1.30994-101.86,42.22-134.42,135.43005-133.29,181.98,2.21,364.02991,2.87,545.98-.16C1824.57007,300.66,1870.93994,334.92,1866.84009,441.83Z" transform="translate(-910.95372 -170.56149)"/></svg>