<svg id="Livello_1" data-name="Livello 1" xmlns="http://www.w3.org/2000/svg" viewBox="0 0 1051.20158 1756.30247"><path d="M1901.86,378.99c-1.13-180.74-89.06995-265.48-267.64-268.48-169.79-2.85-339.7-2.45-509.5.19C938.43,113.6,854.84,199.04,853.02,387.61c-1.93,199.53-.44,399.1-.44,598.66h.83c0,208.05-3.35,416.17,1.12006,624.12,3.29,153.06,95.66,247,247.2,251.08,182.43994,4.92,365.19995,4.17,547.67-.39,155.75-3.9,247.98-93.06,249.59-246.6Q1905.4701,996.78,1901.86,378.99ZM1608.87,1713.65c-157.13-5.77-314.66-3.21-471.95008-.55005C1049.13,1714.58,1001.13,1684.62,1001.44,1588.91c1.29-399.71.24-799.42-.68-1199.12995-.19-82.14,34.5-129.35,120.51-129.43,170.09-.18,340.17993.49,510.26,0,94.53-.27,123.97,51.26,122.78,138.82-2.72,199.81995-.86011,399.7-.75,599.55994.09985,187.1-3.21008,374.29,1.38989,561.28C1757.56006,1666.07,1722.97,1717.84,1608.87,1713.65Z" transform="translate(-852.03117 -108.54033)"/></svg>