<svg id="Livello_1" data-name="Livello 1" xmlns="http://www.w3.org/2000/svg" viewBox="0 0 1641.69035 1647.18435"><path d="M2274.79,398.67c-.66992-162.53-80.52-245.96-242.53-247.12006q-575.955-4.125-1151.96-.26c-164.21.96-243.05,81.36-244.8,243.91-2.08,191.97-.49,383.98-.49,575.97h.51c0,191.99-2.02,384,.61,575.95,2.29,167.71,84.34,248.05,253.06,248.65q563.9849,1.99494,1127.96991-.04c174.58008-.59,256.87012-81.65,257.72-257.12Q2277.64,968.655,2274.79,398.67ZM2137.1001,426.32c-4.02,183.67-1.17017,367.48-1.23,551.23-.07007,183.75-1.73,367.53.63989,551.25,1.15991,89.98-32.74,127.97-127.64,126.99q-551.205-5.685-1102.5.03c-99.54,1.05-134.61-38.04-133.91-134.04q3.915-545.23507.15-1090.51c-.84-101.85,37-143.51,140.79-142.57,363.48,3.29,727.02991,2.56,1090.52991.2C2101.92993,288.26,2139.21,329.72,2137.1001,426.32Z" transform="translate(-634.42886 -149.54499)"/></svg>