<svg id="Livello_1" data-name="Livello 1" xmlns="http://www.w3.org/2000/svg" viewBox="0 0 1198.03294 1468.58393"><path d="M2035.61,1026.41c-.03992-171.19.81994-342.37995-.29993-513.55994-1.03-158.25-70.6001-232.22-225.73-233.68q-374.43018-3.51-748.92017.09C910.32,280.71,839.18,354.3,838.69,505.02q-1.65,502.86.08,1005.72c.57,162.53,73.3,234.09,235.8999,234.64q363.78,1.245,727.55005-.03c160.55-.59,232.3501-74.03,233.24-237.48C2036.34009,1347.39,2035.65991,1186.89,2035.61,1026.41ZM1911.13,523.67c-4.51,163.95-1.28991,328.11993-1.28991,492.2H1909.27c0,164.07-2.3,328.19.96,492.2,1.66,83.58-33.05005,113.29-115.13989,112.21q-358.4101-4.71-716.93018.06C995.04,1621.47,963.43,1589.3,963.96,1506.9q3.20994-497.55-.29-995.14c-.5-79.17,36.15-108.84,110.21-108.7,238.98.48,477.97.75,716.95008-.82C1875.08008,401.69,1913.58008,434.6,1911.13,523.67Z" transform="translate(-837.87476 -277.42981)"/></svg>