<svg width="32" height="32" xmlns="http://www.w3.org/2000/svg">
 <title/>

 <g>
  <title>background</title>
  <rect fill="none" id="canvas_background" height="402" width="582" y="-1" x="-1"/>
 </g>
 <g>
  <title>Layer 1</title>
  <path fill="#d5d5d5" id="svg_1" d="m28.46,4a3,3 0 0 0 -3,0.07l-15.2,9.41a3,3 0 0 0 -1.26,1.52l0,-10a3,3 0 0 0 -3,-3l-1,0a3,3 0 0 0 -3,3l0,22a3,3 0 0 0 3,3l1,0a3,3 0 0 0 3,-3l0,-10a3,3 0 0 0 1.22,1.53l15.2,9.47a3,3 0 0 0 1.58,0.46a3,3 0 0 0 3,-3l0,-18.87a3,3 0 0 0 -1.54,-2.59z"/>
 </g>
</svg>