<svg width="128" height="128" xmlns="http://www.w3.org/2000/svg">

 <g>
  <title>background</title>
  <rect fill="none" id="canvas_background" height="402" width="582" y="-1" x="-1"/>
 </g>
 <g>
  <title>Layer 1</title>
  <path id="svg_3" fill-rule="evenodd" fill="#43597d" d="m96,0l-80,0c-8.836,0 -16,7.164 -16,16l0,96c0,8.836 7.164,16 16,16l44,0l0,-8l-44,0c-4.406,0 -8,-3.586 -8,-8l0,-96c0,-4.414 3.594,-8 8,-8l80,0c4.414,0 8,3.586 8,8l0,47.031l8,-8l0,-39.031c0,-8.836 -7.164,-16 -16,-16z" clip-rule="evenodd"/>
  <path id="svg_4" fill="#43597d" d="m125.656,72l-5.656,-5.656c-1.563,-1.563 -3.609,-2.344 -5.656,-2.344s-4.094,0.781 -5.656,2.344l-34.344,34.344c-1.563,1.563 -6.342,7.605 -6.344,9.652l-4,17.66l17.656,-4c0,0 8.094,-4.781 9.656,-6.344l34.344,-34.344c3.125,-3.124 3.125,-8.191 0,-11.312zm-37.164,42.82c-0.453,0.43 -2.02,1.488 -3.934,2.707l-10.363,-10.363c1.063,-1.457 2.246,-2.922 2.977,-3.648l25.859,-25.859l11.313,11.313l-25.852,25.85z"/>
  <path id="svg_5" fill="#43597d" d="m88,32l-64,0l0,-8l64,0l0,8z"/>
  <path id="svg_6" fill="#43597d" d="m88,48l-64,0l0,-8l64,0l0,8z"/>
  <path id="svg_7" fill="#43597d" d="m88,64l-64,0l0,-8l64,0l0,8z"/>
  <path id="svg_8" fill="#43597d" d="m56,80l-32,0l0,-8l32,0l0,8z"/>
 </g>
</svg>