<svg width="512" height="512" xmlns="http://www.w3.org/2000/svg">

 <g>
  <title>background</title>
  <rect fill="none" id="canvas_background" height="402" width="582" y="-1" x="-1"/>
 </g>
 <g>
  <title>Layer 1</title>
  <path fill="#43597d" id="svg_2" d="m381.686,189.777c-6.987,0 -12.673,5.649 -12.673,12.593c0,6.944 5.686,12.593 12.673,12.593c6.992,0 12.68,-5.649 12.68,-12.593c-0.001,-6.944 -5.688,-12.593 -12.68,-12.593z"/>
  <path fill="#43597d" id="svg_3" d="m251.274,171.163c0,-29.409 -24.051,-53.334 -53.613,-53.334s-53.613,23.925 -53.613,53.334c0,29.41 24.051,53.336 53.613,53.336s53.613,-23.927 53.613,-53.336zm-81.339,0c0,-15.227 12.438,-27.615 27.726,-27.615c15.286,0 27.72,12.388 27.72,27.615s-12.435,27.615 -27.72,27.615c-15.289,0 -27.726,-12.388 -27.726,-27.615z"/>
  <path fill="#43597d" id="svg_4" d="m186.399,262.1l4.756,31.512l10.456,0l4.756,-31.512c0.306,-2.026 1.893,-3.619 3.918,-3.932c6.289,-0.972 12.495,-2.623 18.445,-4.909c1.904,-0.729 4.064,-0.146 5.339,1.447l19.955,24.932l9.035,-5.196l-11.712,-29.65c-0.754,-1.909 -0.178,-4.086 1.421,-5.373c4.969,-3.997 9.514,-8.518 13.506,-13.44c1.285,-1.583 3.448,-2.155 5.346,-1.411l29.826,11.67l5.211,-8.972l-25.031,-19.84c-1.609,-1.276 -2.2,-3.452 -1.457,-5.367c2.299,-5.921 3.959,-12.092 4.936,-18.34c0.315,-2.024 1.909,-3.607 3.936,-3.911l31.664,-4.738l0,-10.357l-31.665,-4.74c-2.025,-0.304 -3.619,-1.887 -3.935,-3.911c-0.979,-6.253 -2.638,-12.422 -4.936,-18.337c-0.743,-1.916 -0.152,-4.092 1.457,-5.368l25.031,-19.842l-5.211,-8.972l-29.826,11.67c-1.898,0.745 -4.061,0.172 -5.346,-1.411c-3.99,-4.919 -8.533,-9.439 -13.506,-13.438c-1.599,-1.287 -2.175,-3.464 -1.421,-5.373l11.712,-29.655l-9.035,-5.192l-19.956,24.93c-1.275,1.591 -3.431,2.175 -5.335,1.447c-5.957,-2.285 -12.166,-3.938 -18.451,-4.911c-2.024,-0.314 -3.609,-1.906 -3.915,-3.932l-4.756,-31.508l-10.457,0l-4.755,31.508c-0.306,2.025 -1.891,3.617 -3.915,3.931c-6.301,0.978 -12.509,2.63 -18.45,4.912c-1.904,0.728 -4.062,0.145 -5.337,-1.446l-19.957,-24.93l-9.034,5.192l11.712,29.655c0.754,1.909 0.179,4.086 -1.421,5.373c-4.963,3.992 -9.505,8.513 -13.499,13.437c-1.285,1.584 -3.446,2.155 -5.347,1.412l-29.836,-11.676l-5.205,8.977l25.022,19.834c1.607,1.275 2.2,3.448 1.458,5.362c-2.297,5.939 -3.955,12.114 -4.929,18.352c-0.315,2.025 -1.911,3.609 -3.937,3.912l-31.672,4.731l0,10.369l31.672,4.734c2.026,0.303 3.621,1.888 3.937,3.912c0.973,6.236 2.632,12.41 4.929,18.35c0.74,1.914 0.149,4.087 -1.458,5.362l-25.022,19.836l5.205,8.977l29.836,-11.676c1.902,-0.743 4.063,-0.171 5.347,1.413c3.993,4.924 8.535,9.445 13.499,13.438c1.6,1.287 2.175,3.463 1.421,5.373l-11.712,29.65l9.035,5.196l19.956,-24.932c1.274,-1.593 3.434,-2.179 5.339,-1.446c5.934,2.281 12.14,3.933 18.446,4.908c2.025,0.31 3.612,1.903 3.917,3.93zm-51.722,-90.937c0,-34.576 28.254,-62.705 62.984,-62.705s62.983,28.129 62.983,62.705c0,34.577 -28.254,62.707 -62.983,62.707s-62.984,-28.131 -62.984,-62.707z"/>
  <path fill="#43597d" id="svg_5" d="m197.66,152.918c-10.12,0 -18.354,8.184 -18.354,18.244s8.234,18.244 18.354,18.244c10.118,0 18.35,-8.184 18.35,-18.244s-8.232,-18.244 -18.35,-18.244z"/>
  <path fill="#333539" id="svg_6" d="m397.088,79.226c-31.609,-24.916 -78.971,-33.134 -131.301,-23.131l5.451,3.133c2.017,1.159 2.878,3.621 2.023,5.784l-11.955,30.27c3.579,3.089 6.936,6.43 10.027,9.979l30.438,-11.91c2.151,-0.844 4.6,0.011 5.759,2.01l9.266,15.953c1.169,2.013 0.684,4.579 -1.142,6.025l-25.55,20.253c1.546,4.444 2.771,9 3.661,13.613l32.316,4.836c2.295,0.344 3.992,2.314 3.992,4.634l0,18.431c0,2.32 -1.697,4.291 -3.992,4.634l-32.316,4.834c-0.89,4.61 -2.115,9.168 -3.662,13.614l25.551,20.253c1.825,1.446 2.311,4.012 1.142,6.025l-9.266,15.953c-1.161,1.997 -3.606,2.853 -5.759,2.01l-30.437,-11.91c-3.093,3.552 -6.45,6.892 -10.028,9.98l11.955,30.264c0.854,2.163 -0.007,4.624 -2.021,5.783l-16.028,9.217c-2.005,1.153 -4.549,0.672 -5.994,-1.134l-20.364,-25.443c-4.48,1.544 -9.075,2.767 -13.725,3.653l-4.853,32.156c-0.346,2.291 -2.315,3.986 -4.633,3.986l-18.519,0c-2.317,0 -4.287,-1.695 -4.632,-3.986l-4.853,-32.156c-2.25,-0.429 -4.482,-0.939 -6.695,-1.522l-0.021,200.515l160.555,0l-123.1,-89.852c-2.09,-1.526 -2.548,-4.458 -1.022,-6.548c1.525,-2.09 4.457,-2.547 6.547,-1.022l127.255,92.885l-0.008,-42.063l-69.947,-52.222c-2.074,-1.548 -2.499,-4.483 -0.951,-6.558c1.548,-2.073 4.482,-2.499 6.558,-0.951l64.339,48.034l-0.01,-53.228c0,-1.242 0.493,-2.435 1.373,-3.313c0.878,-0.879 2.07,-1.372 3.313,-1.372l0.001,0l58.203,0.01l0,-93.634c0,-2.588 2.098,-4.686 4.686,-4.686l31.233,0l0,-71.151c-0.003,-43.933 -14.823,-78.838 -42.86,-100.935zm-15.402,145.108c-12.155,0 -22.044,-9.853 -22.044,-21.964s9.889,-21.964 22.044,-21.964c12.159,0 22.051,9.854 22.051,21.964s-9.892,21.964 -22.051,21.964z"/>
 </g>
</svg>