<svg width="32" height="32" xmlns="http://www.w3.org/2000/svg">

 <g>
  <title>background</title>
  <rect fill="none" id="canvas_background" height="402" width="582" y="-1" x="-1"/>
 </g>
 <g>
  <title>Layer 1</title>
  <path id="svg_1" fill-rule="evenodd" fill="#333539" d="m8.624,21.336l2.015,0c1.402,-7.953 8.329,-14 16.684,-14c0.35,0 0.683,0.003 1.019,0.006l-3.664,3.663c-0.391,0.391 -0.391,1.023 0,1.414c0.195,0.195 0.451,0.293 0.707,0.293c0.256,0 0.512,-0.098 0.707,-0.293l5.908,-6.063l-5.907,-6.063c-0.391,-0.391 -1.023,-0.391 -1.414,0c-0.391,0.391 -0.391,1.023 0,1.414l3.631,3.631c-0.318,-0.001 -0.62,-0.003 -0.945,-0.003c-9.47,0.001 -17.299,6.936 -18.741,16.001z" clip-rule="evenodd"/>
  <path id="svg_2" fill-rule="evenodd" fill="#333539" d="m29,15c-0.552,0 -1,0.448 -1,1l0,14l-26,0l0,-20l9,0c0.552,0 1,-0.448 1,-1c0,-0.552 -0.448,-1 -1,-1l-0.03,0l-8.97,0c-1.104,0 -2,0.896 -2,2l0,20c0,1.104 0.896,2 2,2l26,0c1.104,0 2,-0.896 2,-2l0,-14c0,-0.552 -0.448,-1 -1,-1z" clip-rule="evenodd"/>
 </g>
</svg>