<svg width="60" height="60" xmlns="http://www.w3.org/2000/svg">
 <title/>

 <g>
  <title>background</title>
  <rect fill="none" id="canvas_background" height="402" width="582" y="-1" x="-1"/>
 </g>
 <g>
  <title>Layer 1</title>
  <path id="Play-Store" fill="#43597d" d="m30,60c16.56854,0 30,-13.43146 30,-30c0,-16.56854 -13.43146,-30 -30,-30c-16.56854,0 -30,13.43146 -30,30c0,16.56854 13.43146,30 30,30z"/>
  <path id="Mask" fill="#FFFFFF" d="m35.769228,23.62035l-15.78041,-8.62035c-0.82242,0 -1.48882,0.66475 -1.48882,1.48515l0,27.0297c0,0.8204 0.6664,1.48515 1.48882,1.48515c0,0 8.65332,-4.75591 15.78041,-8.65602l0,-12.72363z"/>
  <path id="Mask" fill="#CCCCCC" d="m38.972228,25.37004l6.02876,3.29333c2.68047,1.44386 0,2.67326 0,2.67326c0,-0.08346 -25.01217,13.66337 -25.01217,13.66337c-0.04821,0 -0.09589,-0.00228 -0.14293,-0.00675l19.12634,-19.62321z"/>
  <path id="Mask" fill="#cccccc" d="m19.989768,15.00052l25.01122,13.66285c2.68047,1.44386 0,2.67326 0,2.67326c0,-0.02647 -2.51718,1.3389 -5.95446,3.21571l-19.05676,-19.55182z"/>
  <path id="Mask" fill="#FFFFFF" d="m39.004628,25.38774l5.99636,3.27563c2.68047,1.44386 0,2.67326 0,2.67326c0,-0.02647 -2.51718,1.3389 -5.95446,3.21571l-4.48722,-4.60379l4.44532,-4.56081z"/>
 </g>
</svg>